<svg xmlns="http://www.w3.org/2000/svg" width="235" height="90" viewBox="0 0 235 90">
  <defs>
    <linearGradient id="default-dark-a" x1="0%" x2="100%" y1="0%" y2="0%">
      <stop offset="0%" stop-color="#0076DD"/>
      <stop offset="100%" stop-color="#00CDE9"/>
    </linearGradient>
  </defs>
  <g fill="none" transform="translate(-1 -1)">
    <path fill="#DAF1FB" d="M7.71739133,0.978260873 L7.71739133,22.2282609 L7.71739133,22.2282609 C8.58695655,21.6847827 9.89130438,21.1050725 11.6304348,20.4891305 L11.6304348,20.4891305 L11.6304348,20.4891305 C13.4057971,19.8731885 15.4347827,19.5652175 17.7173914,19.5652175 L17.7173914,19.5652175 L17.7173914,19.5652175 C20.5434783,19.5652175 23.0615943,20.0724638 25.2717392,21.0869566 L25.2717392,21.0869566 L25.2717392,21.0869566 C27.4818842,22.1014494 29.3478262,23.5144928 30.8695653,25.326087 L30.8695653,25.326087 L30.8695653,25.326087 C32.3913045,27.1739131 33.5507248,29.3659421 34.3478262,31.902174 L34.3478262,31.902174 L34.3478262,31.902174 C35.1086958,34.4384059 35.4891306,37.228261 35.4891306,40.2717393 L35.4891306,40.2717393 L35.4891306,40.2717393 C35.4891306,43.4601451 35.0181161,46.3405799 34.0760871,48.9130436 L34.0760871,48.9130436 L34.0760871,48.9130436 C33.1340581,51.4492755 31.8115943,53.6050726 30.1086958,55.380435 L30.1086958,55.380435 L30.1086958,55.380435 C28.3695653,57.1557973 26.286232,58.5326089 23.8586957,59.5108698 L23.8586957,59.5108698 L23.8586957,59.5108698 C21.4311595,60.4891306 18.6956522,60.9782609 15.6521739,60.9782609 L15.6521739,60.9782609 L15.6521739,60.9782609 C12.3550725,60.9782609 9.43840583,60.7427538 6.90217394,60.2717393 L6.90217394,60.2717393 L6.90217394,60.2717393 C4.36594204,59.8007248 2.2826087,59.3478263 0.652173915,58.9130437 L0.652173915,58.9130437 L0.652173915,2.22826088 L7.71739133,0.978260873 Z M7.71739133,28.8586958 L7.71739133,53.8586958 L7.71739133,53.8586958 C8.44202901,54.0760871 9.45652177,54.2753625 10.7608696,54.4565219 L10.7608696,54.4565219 L10.7608696,54.4565219 C12.0289855,54.6376813 13.6231885,54.7282611 15.5434783,54.7282611 L15.5434783,54.7282611 L15.5434783,54.7282611 C19.3478262,54.7282611 22.3913044,53.4782611 24.6739131,50.978261 L24.6739131,50.978261 L24.6739131,50.978261 C26.9565218,48.4420292 28.0978262,44.8731886 28.0978262,40.2717393 L28.0978262,40.2717393 L28.0978262,40.2717393 C28.0978262,38.2427538 27.8985508,36.3405798 27.5000001,34.5652175 L27.5000001,34.5652175 L27.5000001,34.5652175 C27.1014494,32.7898552 26.4492755,31.2500001 25.5434783,29.9456523 L25.5434783,29.9456523 L25.5434783,29.9456523 C24.6376812,28.6413044 23.460145,27.6268117 22.0108696,26.902174 L22.0108696,26.902174 L22.0108696,26.902174 C20.5615943,26.1775363 18.8224638,25.8152175 16.7934783,25.8152175 L16.7934783,25.8152175 L16.7934783,25.8152175 C14.8731885,25.8152175 13.0978261,26.1413044 11.4673913,26.7934784 L11.4673913,26.7934784 L11.4673913,26.7934784 C9.83695656,27.4456523 8.58695655,28.1340581 7.71739133,28.8586958 L7.71739133,28.8586958 Z M60.054348,19.6195653 L60.054348,19.6195653 L60.054348,19.6195653 C60.6702901,19.6195653 61.3768118,19.6557972 62.1739133,19.7282609 L62.1739133,19.7282609 L62.1739133,19.7282609 C62.9710147,19.8369566 63.7500002,19.9456522 64.5108698,20.0543479 L64.5108698,20.0543479 L64.5108698,20.0543479 C65.2717394,20.1992754 65.9601452,20.326087 66.5760872,20.4347827 L66.5760872,20.4347827 L66.5760872,20.4347827 C67.2282611,20.5797102 67.6992756,20.6884059 67.9891306,20.7608696 L67.9891306,20.7608696 L66.7934785,26.9565218 L66.7934785,26.9565218 C66.2137683,26.7391305 65.2898553,26.5036233 64.0217394,26.2500001 L64.0217394,26.2500001 L64.0217394,26.2500001 C62.7173915,25.960145 61.0507248,25.8152175 59.0217393,25.8152175 L59.0217393,25.8152175 L59.0217393,25.8152175 C57.6811596,25.8152175 56.3768118,25.960145 55.1086958,26.2500001 L55.1086958,26.2500001 L55.1086958,26.2500001 C53.804348,26.5036233 52.9528987,26.6847827 52.554348,26.7934784 L52.554348,26.7934784 L52.554348,60.054348 L45.4891306,60.054348 L45.4891306,22.1739131 L45.4891306,22.1739131 C47.1557973,21.5579711 49.2210147,20.9782609 51.6847828,20.4347827 L51.6847828,20.4347827 L51.6847828,20.4347827 C54.1847828,19.8913044 56.9746379,19.6195653 60.054348,19.6195653 Z M74.8369568,60.054348 L74.8369568,21.6304349 L74.8369568,21.6304349 C76.4673916,21.2318841 78.6231887,20.7971015 81.3043481,20.326087 L81.3043481,20.326087 L81.3043481,20.326087 C83.9855075,19.8550725 87.0833336,19.6195653 90.5978264,19.6195653 L90.5978264,19.6195653 L90.5978264,19.6195653 C93.7500003,19.6195653 96.358696,20.0724638 98.4239134,20.9782609 L98.4239134,20.9782609 L98.4239134,20.9782609 C100.489131,21.8478262 102.155797,23.0797102 103.423913,24.6739131 L103.423913,24.6739131 L103.423913,24.6739131 C104.655797,26.3043479 105.525363,28.2246378 106.032609,30.4347827 L106.032609,30.4347827 L106.032609,30.4347827 C106.539855,32.6811595 106.793479,35.1449277 106.793479,37.8260871 L106.793479,37.8260871 L106.793479,60.054348 L99.7282612,60.054348 L99.7282612,39.3478262 L99.7282612,39.3478262 C99.7282612,36.92029 99.5652177,34.8369566 99.2391308,33.0978262 L99.2391308,33.0978262 L99.2391308,33.0978262 C98.9130438,31.3949276 98.3695656,30.0000001 97.608696,28.9130436 L97.608696,28.9130436 L97.608696,28.9130436 C96.8478264,27.8623189 95.8333337,27.0833334 94.5652177,26.576087 L94.5652177,26.576087 L94.5652177,26.576087 C93.2971018,26.1050726 91.7210148,25.8695653 89.8369568,25.8695653 L89.8369568,25.8695653 L89.8369568,25.8695653 C89.0760873,25.8695653 88.2789858,25.9057972 87.4456525,25.978261 L87.4456525,25.978261 L87.4456525,25.978261 C86.648551,26.0144928 85.8876815,26.0688407 85.1630438,26.1413044 L85.1630438,26.1413044 L85.1630438,26.1413044 C84.4021742,26.2137682 83.7318843,26.3043479 83.1521742,26.4130436 L83.1521742,26.4130436 L83.1521742,26.4130436 C82.5724641,26.5217392 82.1557974,26.594203 81.9021742,26.6304349 L81.9021742,26.6304349 L81.9021742,60.054348 L74.8369568,60.054348 Z" transform="translate(128.989 15.022)"/>
    <path fill="url(#default-dark-a)" d="M54.7345095,0.0036489673 C24.735133,0.0036489673 0.415937243,24.3227997 0.415937243,54.3246088 C0.405682983,62.3079409 2.16229319,70.1946181 5.55980984,77.4189228 C5.69360531,77.6828648 5.84442929,77.9382925 6.00863282,78.185206 C6.0293103,78.2216956 20.2323073,103.011563 66.6289265,80.6774506 C68.9375065,72.0804837 76.1174578,39.9780857 56.7864454,33.0864028 C46.565688,29.4423008 36.6636071,31.3665229 30.2985918,38.232663 C24.5015991,44.486993 22.909433,53.3722283 26.2421565,60.8684235 C28.3889656,65.7008725 31.5866772,68.0848645 35.7343367,67.9364731 C42.6016932,67.7017229 49.4593191,61.224806 50.394671,58.6632309 C51.2898843,56.2086922 51.884666,52.8042058 49.6247389,50.5236012 C47.6993005,48.5787016 44.0527659,47.9620262 40.9547926,49.0579327 C39.3589776,49.6223063 36.6283337,51.107436 36.267086,54.710183 C36.2112067,55.2721866 35.9338937,55.7888245 35.496396,56.1459887 C35.0588983,56.503153 34.4972125,56.6714568 33.9353959,56.6137276 C33.3737566,56.5575262 32.8575156,56.2803011 32.5004487,55.8431508 C32.1433817,55.4060005 31.9747977,54.8448071 32.0318513,54.2832538 C32.4624294,50.0066642 35.2684852,46.5535248 39.5365607,45.0428523 C44.2558917,43.3728416 49.5274331,44.3714423 52.6509491,47.5265827 C54.3805596,49.2744381 56.9080776,53.2335676 54.3951555,60.1203852 C52.7336591,64.6755127 44.0333047,71.9101985 35.8802954,72.1887364 C31.7180401,72.3359114 25.9915941,70.783884 22.3535737,62.5968177 C18.3275464,53.5412971 20.2225768,42.8413087 27.1787248,35.3378156 C34.7381687,27.1823737 46.3418847,24.840953 58.2192732,29.0749714 C69.1892852,32.9866644 74.6736831,43.890995 74.0861994,60.6093468 C73.7967146,68.8256048 72.1352182,76.4531628 71.044177,80.6762343 L102.241631,80.6762343 C106.723792,72.6165544 109.069834,63.5443252 109.056741,54.3221762 C109.053037,24.324016 84.7338859,0.0036489673 54.7345095,0.0036489673 Z" transform="translate(.606 1)"/>
  </g>
</svg>
